<svg data-name="Layer 1" xmlns="http://www.w3.org/2000/svg" viewBox="0 0 30 30">
    <path data-name="Path 249" d="M26.22 22.09H4.05A1.44 1.44 0 012.64 21 12.85 12.85 0 1128 17.43a13.17 13.17 0 01-.36 3.57 1.44 1.44 0 01-1.42 1.09zm-11.09-16A11.85 11.85 0 007 9.28a12 12 0 00-3.47 11.48.53.53 0 00.52.42h22.17a.53.53 0 00.52-.42 11.71 11.71 0 00.31-3.29A12 12 0 0016 6.1h-.86zm10.78 12.37h-2.72v-.92h2.72zm-18.83 0H4.36v-.92h2.72zM15.59 10h-.91V7.23h.91zm5.56 2.69L20.5 12l1.93-1.93.65.65zm-12 0l-1.96-1.98.65-.65L9.77 12zm6 8a2.38 2.38 0 01-2.38-2.37 2.42 2.42 0 01.86-1.84l1.08-4.28a.45.45 0 01.44-.34.44.44 0 01.45.34l1.08 4.28a2.38 2.38 0 01-1.53 4.21zm0-6.5l-.67 2.67a.4.4 0 01-.18.26 1.48 1.48 0 00-.34 2.05 1.47 1.47 0 102-2.05.39.39 0 01-.17-.26z" fill="currentColor"/>
</svg>
