<svg id="Layer_1" data-name="Layer 1" xmlns="http://www.w3.org/2000/svg" viewBox="0 0 30 30">
    <defs>
        <style>
            .cls-1{fill:currentColor}
        </style>
    </defs>
    <path class="cls-1" d="M28.86 14.66c-.27-.33-6.27-7.84-13.86-7.84S1.4 14.34 1.15 14.66a.45.45 0 000 .57c.26.32 6.24 7.84 13.86 7.84s13.6-7.52 13.86-7.84a.47.47 0 00-.01-.57zm-1.08.28C26.62 16.31 21.27 22.1 15 22.1S3.38 16.31 2.22 14.94C3.38 13.58 8.73 7.78 15 7.78s11.61 5.8 12.78 7.16z"/>
    <path class="cls-1" d="M17 10.69a4.77 4.77 0 00-2-.45 4.7 4.7 0 104.7 4.7v-.31a2.35 2.35 0 01-1.23.35A2.39 2.39 0 0117 10.69z"/>
</svg>
