<svg version="1.1" id="Capa_1" xmlns="http://www.w3.org/2000/svg" x="0" y="0" viewBox="0 0 30 30" xml:space="preserve">
    <style>
        .cls-1{fill:currentColor}
    </style>
    <path class="st0" d="M14.9 27.4H3.7c-.7 0-1.2-.6-1.2-1.2V3.7c0-.7.6-1.2 1.2-1.2H15c.7 0 1.2-.6 1.2-1.2S15.6 0 15 0H3.7C1.7 0 0 1.7 0 3.7v22.4c0 2.1 1.7 3.7 3.7 3.7H15c.7 0 1.2-.6 1.2-1.2s-.6-1.2-1.3-1.2z"/>
    <path class="st0" d="M29.6 14.1L22 6.6c-.5-.5-1.3-.5-1.8 0s-.5 1.3 0 1.8l5.4 5.3H11.2c-.7 0-1.2.6-1.2 1.2 0 .7.6 1.2 1.2 1.2h14.5l-5.4 5.3c-.5.5-.5 1.3 0 1.8.2.2.6.4.9.4s.6-.1.9-.4l7.6-7.5c.2-.2.4-.6.4-.9-.1-.2-.2-.5-.5-.7z"/>
</svg>
