<svg data-name="Layer 1" xmlns="http://www.w3.org/2000/svg" viewBox="0 0 30 30">
    <path data-name="Path 253" d="M17.05 25.12h-3a.47.47 0 01-.47-.47v-2a8 8 0 01-2-.86L10.33 23a.47.47 0 01-.66 0l-2.1-2.1a.47.47 0 010-.67L8.78 19a7.72 7.72 0 01-.87-2h-2a.48.48 0 01-.48-.47v-3a.48.48 0 01.48-.53h2a7.72 7.72 0 01.87-2L7.57 9.78a.46.46 0 010-.67L9.67 7a.44.44 0 01.33-.13.44.44 0 01.33.14l1.22 1.21a8 8 0 012-.86v-2a.47.47 0 01.47-.47h3a.48.48 0 01.48.47v2a8 8 0 012.05.86L20.78 7a.48.48 0 01.67 0l2.1 2.1a.48.48 0 010 .67L22.34 11a8.06 8.06 0 01.87 2h2a.48.48 0 01.47.48v3a.47.47 0 01-.47.47h-2a8.06 8.06 0 01-.87 2.05l1.21 1.21a.48.48 0 010 .67L21.45 23a.46.46 0 01-.67 0l-1.21-1.21a8.34 8.34 0 01-2.06.87v2a.46.46 0 01-.46.46zm-2.5-.94h2v-1.91a.46.46 0 01.38-.46 7.16 7.16 0 002.43-1 .47.47 0 01.59.06L21.12 22l1.43-1.44-1.14-1.13a.48.48 0 01-.06-.6 6.87 6.87 0 001-2.43.47.47 0 01.47-.37h1.9V14h-1.9a.48.48 0 01-.47-.38 6.9 6.9 0 00-1-2.42.48.48 0 01.06-.6l1.14-1.14L21.12 8 20 9.16a.46.46 0 01-.59.06A7 7 0 0017 8.2a.47.47 0 01-.38-.47V5.82h-2v1.91a.48.48 0 01-.38.47 7 7 0 00-2.43 1 .46.46 0 01-.59-.06L10 8 8.57 9.45l1.14 1.14a.47.47 0 01.06.6 6.9 6.9 0 00-1 2.42.48.48 0 01-.47.38H6.38v2h1.9a.47.47 0 01.47.37 6.87 6.87 0 001 2.43.47.47 0 01-.06.6l-1.12 1.17L10 22l1.15-1.15a.48.48 0 01.59-.06 6.79 6.79 0 002.43 1 .49.49 0 01.38.46zm1-4.25a6.42 6.42 0 01-.87-.09h-.18a5.54 5.54 0 01-.69-.22 2 2 0 01-.34-.14h-.05A5 5 0 0110.63 15a4.82 4.82 0 01.31-1.64 4.88 4.88 0 012.45-2.77h.08l.31-.13c.21-.08.44-.15.66-.21h.15a4.25 4.25 0 011.74 0h.2a5.16 5.16 0 01.67.2 2.52 2.52 0 01.34.15 4.86 4.86 0 012.52 6.08 4.88 4.88 0 01-2.46 2.76l-.35.14a4.31 4.31 0 01-.67.21h-.2a6.25 6.25 0 01-.87.09zm-1.65-1.32l.26.1a3.5 3.5 0 00.55.17h.15a3.66 3.66 0 001.4 0h.17a3.27 3.27 0 00.53-.17l.26-.11h.05a4 4 0 000-7.16 2.24 2.24 0 00-.26-.1 3.86 3.86 0 00-.55-.17h-.16a3.3 3.3 0 00-1.4 0h-.15a5 5 0 00-.55.17l-.27.12a3.94 3.94 0 00-2 2.26 3.67 3.67 0 000 2.65 3.88 3.88 0 002 2.26h.05z" fill="currentColor"/>
</svg>
